<svg width="297" height="192" viewBox="0 0 297 192" fill="none" 
  xmlns="http://www.w3.org/2000/svg">
  <path d="M64.5708 66.8054H93.4146V51.3525H64.5708V66.8054Z" fill="#084888"/>
  <path fill-rule="evenodd" clip-rule="evenodd" d="M64.5708 66.8054H93.4146V51.3525H64.5708V66.8054Z" stroke="#084888" stroke-width="1.12" stroke-linecap="round" stroke-linejoin="round"/>
  <path fill-rule="evenodd" clip-rule="evenodd" d="M87.4316 127.691H222.965V69.3798H87.4316V127.691Z" fill="url(#paint0_linear)" stroke="#084888" stroke-width="1.12" stroke-linecap="round" stroke-linejoin="round"/>
  <path d="M207.766 52.1393L205.809 51.8728L205.064 57.3481L207.02 57.6146L207.766 52.1393Z" fill="#F1F3F6"/>
  <path fill-rule="evenodd" clip-rule="evenodd" d="M207.766 52.1393L205.809 51.8728L205.064 57.3481L207.02 57.6146L207.766 52.1393Z" stroke="#084888" stroke-width="1.12" stroke-linecap="round" stroke-linejoin="round"/>
  <path d="M205.064 57.348L205.781 59.3991L207.02 57.6145L205.064 57.348Z" fill="#FFFFFE"/>
  <path fill-rule="evenodd" clip-rule="evenodd" d="M205.064 57.348L205.781 59.3991L207.02 57.6145L205.064 57.348Z" stroke="#084888" stroke-width="1.12" stroke-linecap="round" stroke-linejoin="round"/>
  <path d="M208.945 43.4732L206.989 43.2067L205.809 51.8728L207.765 52.1393L208.945 43.4732Z" fill="#F1F3F6"/>
  <path fill-rule="evenodd" clip-rule="evenodd" d="M208.945 43.4732L206.989 43.2067L205.809 51.8728L207.765 52.1393L208.945 43.4732Z" stroke="#084888" stroke-width="1.12" stroke-linecap="round" stroke-linejoin="round"/>
  <path d="M208.844 44.2159L206.888 43.9498L206.989 43.2067L208.945 43.4732L208.844 44.2159Z" fill="#FFFFFE"/>
  <path fill-rule="evenodd" clip-rule="evenodd" d="M208.845 44.2158L206.888 43.9497L206.989 43.2066L208.945 43.4731L208.845 44.2158ZM206.752 43.1744L206.08 43.083L205.045 50.6879L206.752 43.1744Z" stroke="#084888" stroke-width="1.12" stroke-linecap="round" stroke-linejoin="round"/>
  <path d="M208.811 41.1671L207.736 41.021L207.43 43.2666L208.504 43.4131L208.811 41.1671Z" fill="#FFFFFE"/>
  <path fill-rule="evenodd" clip-rule="evenodd" d="M208.811 41.1671L207.736 41.021L207.43 43.2666L208.504 43.4131L208.811 41.1671Z" stroke="#084888" stroke-width="1.12" stroke-linecap="round" stroke-linejoin="round"/>
  <path d="M200.522 45.9751L198.567 46.254L200.176 57.517L202.131 57.2377L200.522 45.9751Z" fill="#F1F3F6"/>
  <path fill-rule="evenodd" clip-rule="evenodd" d="M200.522 45.9751L198.567 46.254L200.176 57.517L202.131 57.2377L200.522 45.9751Z" stroke="#084888" stroke-width="1.12" stroke-linecap="round" stroke-linejoin="round"/>
  <path d="M200.177 57.5171L201.428 59.2937L202.132 57.2378L200.177 57.5171Z" fill="#FFFFFE"/>
  <path fill-rule="evenodd" clip-rule="evenodd" d="M200.177 57.5171L201.428 59.2937L202.132 57.2378L200.177 57.5171Z" stroke="#084888" stroke-width="1.12" stroke-linecap="round" stroke-linejoin="round"/>
  <path d="M200.387 45.0361L198.433 45.3155L198.567 46.254L200.522 45.9752L200.387 45.0361Z" fill="#F1F3F6"/>
  <path fill-rule="evenodd" clip-rule="evenodd" d="M200.387 45.0361L198.433 45.3155L198.567 46.254L200.522 45.9752L200.387 45.0361Z" stroke="#084888" stroke-width="1.12" stroke-linecap="round" stroke-linejoin="round"/>
  <path d="M199.111 43.0813C198.571 43.1585 198.196 43.6589 198.273 44.1986L198.433 45.3154L200.387 45.0361L200.228 43.9192C200.151 43.3796 199.65 43.0045 199.111 43.0813Z" fill="#F1F3F6"/>
  <path fill-rule="evenodd" clip-rule="evenodd" d="M199.111 43.0813C198.571 43.1585 198.196 43.6589 198.273 44.1986L198.433 45.3154L200.387 45.0361L200.228 43.9192C200.151 43.3796 199.65 43.0045 199.111 43.0813Z" stroke="#084888" stroke-width="1.12" stroke-linecap="round" stroke-linejoin="round"/>
  <path fill-rule="evenodd" clip-rule="evenodd" d="M54.317 89.3707H85.1602V69.3798H54.317V89.3707Z" fill="#F1F3F6" stroke="#084888" stroke-width="1.12" stroke-linecap="round" stroke-linejoin="round"/>
  <path d="M181.26 64.1622C180.767 64.1622 180.368 63.7628 180.368 63.2699V62.4381C180.368 61.9452 180.767 61.5454 181.26 61.5454C181.753 61.5454 182.153 61.9452 182.153 62.4381V63.2699C182.153 63.7628 181.753 64.1622 181.26 64.1622Z" fill="#FFFFFE"/>
  <path fill-rule="evenodd" clip-rule="evenodd" d="M181.26 64.1622C180.767 64.1622 180.368 63.7628 180.368 63.2699V62.4381C180.368 61.9452 180.767 61.5454 181.26 61.5454C181.753 61.5454 182.153 61.9452 182.153 62.4381V63.2699C182.153 63.7628 181.753 64.1622 181.26 64.1622ZM168.473 64.2394H109.641C109.641 65.6567 110.791 66.8054 112.208 66.8054H165.906C167.324 66.8054 168.473 65.6567 168.473 64.2394Z" fill="#F1F3F6" stroke="#084888" stroke-width="1.12" stroke-linecap="round" stroke-linejoin="round"/>
  <path d="M176.754 14.2658C176.754 10.9906 174.099 8.33594 170.824 8.33594H107.289C104.014 8.33594 101.359 10.9906 101.359 14.2658V46.0329H176.754V14.2658Z" fill="#F1F3F6"/>
  <path fill-rule="evenodd" clip-rule="evenodd" d="M176.754 14.2658C176.754 10.9906 174.099 8.33594 170.824 8.33594H107.289C104.014 8.33594 101.359 10.9906 101.359 14.2658V46.0329H176.754V14.2658Z" stroke="#084888" stroke-width="1.12" stroke-linecap="round" stroke-linejoin="round"/>
  <path d="M103.501 46.0329V14.2657C103.501 12.1768 105.2 10.4774 107.289 10.4774H170.825C172.913 10.4774 174.612 12.1768 174.612 14.2657V46.0329H103.501Z" fill="#32363D"/>
  <path fill-rule="evenodd" clip-rule="evenodd" d="M103.501 46.0329V14.2657C103.501 12.1768 105.2 10.4774 107.289 10.4774H170.825C172.913 10.4774 174.612 12.1768 174.612 14.2657V46.0329H103.501Z" stroke="#084888" stroke-width="1.12" stroke-linecap="round" stroke-linejoin="round"/>
  <path d="M107.289 54.3867H170.824C174.099 54.3867 176.754 51.732 176.754 48.4569V46.033H101.359V48.4569C101.359 51.732 104.014 54.3867 107.289 54.3867Z" fill="#F1F3F6"/>
  <path fill-rule="evenodd" clip-rule="evenodd" d="M107.289 54.3867H170.824C174.099 54.3867 176.754 51.732 176.754 48.4569V46.033H101.359V48.4569C101.359 51.732 104.014 54.3867 107.289 54.3867Z" stroke="#084888" stroke-width="1.12" stroke-linecap="round" stroke-linejoin="round"/>
  <path d="M113.898 66.8054H44.9635V69.3798H112.956" fill="#F1F3F6"/>
  <path d="M113.898 66.8054H44.9635V69.3798H112.956" stroke="#084888" stroke-width="1.12" stroke-linecap="round" stroke-linejoin="round"/>
  <path d="M164.209 66.8054H233.15V69.3798H165.157" fill="#F1F3F6"/>
  <path d="M164.209 66.8054H233.15V69.3798H165.157" stroke="#084888" stroke-width="1.12" stroke-linecap="round" stroke-linejoin="round"/>
  <path d="M165.919 71.8509C163.699 62.5374 150.547 38.9779 139.057 38.9779C127.567 38.9779 114.415 62.5374 112.195 71.8509C110.023 80.961 114.801 87.8086 124.429 87.8086C134.057 87.8086 139.057 87.8086 139.057 87.8086C139.057 87.8086 144.057 87.8086 153.685 87.8086C163.313 87.8086 168.091 80.961 165.919 71.8509Z" fill="#F1F3F6"/>
  <path fill-rule="evenodd" clip-rule="evenodd" d="M165.919 71.8509C163.699 62.5374 150.547 38.9779 139.057 38.9779C127.567 38.9779 114.415 62.5374 112.195 71.8509C110.023 80.961 114.801 87.8086 124.429 87.8086C134.057 87.8086 139.057 87.8086 139.057 87.8086C139.057 87.8086 144.057 87.8086 153.685 87.8086C163.313 87.8086 168.091 80.961 165.919 71.8509Z" stroke="#084888" stroke-width="1.12" stroke-linecap="round" stroke-linejoin="round"/>
  <path fill-rule="evenodd" clip-rule="evenodd" d="M128.803 87.8086L107.241 127.925H110.009L131.57 87.8086H128.803Z" fill="#F1F3F6" stroke="#084888" stroke-width="1.12" stroke-linecap="round" stroke-linejoin="round"/>
  <path fill-rule="evenodd" clip-rule="evenodd" d="M147.208 87.8086L168.77 127.925H166.003L144.441 87.8086H147.208Z" fill="#F1F3F6" stroke="#084888" stroke-width="1.12" stroke-linecap="round" stroke-linejoin="round"/>
  <path fill-rule="evenodd" clip-rule="evenodd" d="M136.649 127.925H139.362V87.8086H136.649V127.925ZM116.34 110.996H159.808H116.34ZM169.408 50.7453C169.408 50.154 169.888 49.6743 170.479 49.6743C171.071 49.6743 171.55 50.154 171.55 50.7453C171.55 51.337 171.071 51.8163 170.479 51.8163C169.888 51.8163 169.408 51.337 169.408 50.7453Z" fill="#F1F3F6" stroke="#084888" stroke-width="1.12" stroke-linecap="round" stroke-linejoin="round"/>
  <path d="M181.335 62.6332H180.927C178.623 62.6332 176.754 64.5011 176.754 66.8054H185.508C185.508 64.5011 183.64 62.6332 181.335 62.6332Z" fill="#F1F3F6"/>
  <path fill-rule="evenodd" clip-rule="evenodd" d="M181.335 62.6332H180.927C178.623 62.6332 176.754 64.5011 176.754 66.8054H185.508C185.508 64.5011 183.64 62.6332 181.335 62.6332Z" stroke="#084888" stroke-width="1.12" stroke-linecap="round" stroke-linejoin="round"/>
  <path d="M182.295 65.5222H182.583C183.438 65.5222 184.269 65.2403 184.947 64.7191" fill="#FFFFFE"/>
  <path d="M182.295 65.5222H182.583C183.438 65.5222 184.269 65.2403 184.947 64.7191" stroke="#084888" stroke-width="1.12" stroke-linecap="round" stroke-linejoin="round"/>
  <path d="M236.45 101.294L240.234 127.925H260.082L263.866 101.294H236.45Z" fill="#F1F3F6"/>
  <path fill-rule="evenodd" clip-rule="evenodd" d="M263.866 101.294H236.45L240.234 127.925H260.082L263.866 101.294Z" stroke="#084888" stroke-width="1.12" stroke-linecap="round" stroke-linejoin="round"/>
  <path fill-rule="evenodd" clip-rule="evenodd" d="M58.8749 84.8013H80.6022V73.9491H58.8749V84.8013Z" fill="#F1F3F6" stroke="#084888" stroke-width="1.12" stroke-linecap="round" stroke-linejoin="round"/>
  <path fill-rule="evenodd" clip-rule="evenodd" d="M74.7296 78.5186H64.748C63.8015 78.5186 63.0341 79.2859 63.0341 80.2325H76.4435C76.4435 79.2859 75.6761 78.5186 74.7296 78.5186Z" stroke="#084888" stroke-width="1.12" stroke-linecap="round" stroke-linejoin="round"/>
  <path fill-rule="evenodd" clip-rule="evenodd" d="M54.317 109.362H85.1602V89.3707H54.317V109.362Z" fill="#F1F3F6" stroke="#084888" stroke-width="1.12" stroke-linecap="round" stroke-linejoin="round"/>
  <path fill-rule="evenodd" clip-rule="evenodd" d="M58.8749 104.793H80.6022V93.9401H58.8749V104.793Z" stroke="#084888" stroke-width="1.12" stroke-linecap="round" stroke-linejoin="round"/>
  <path d="M74.7296 98.5095H64.748C63.8015 98.5095 63.0341 99.2769 63.0341 100.223H76.4435C76.4435 99.2769 75.6761 98.5095 74.7296 98.5095Z" fill="#FFFFFE"/>
  <path fill-rule="evenodd" clip-rule="evenodd" d="M74.7296 98.5095H64.748C63.8015 98.5095 63.0341 99.2769 63.0341 100.223H76.4435C76.4435 99.2769 75.6761 98.5095 74.7296 98.5095Z" stroke="#084888" stroke-width="1.12" stroke-linecap="round" stroke-linejoin="round"/>
  <path fill-rule="evenodd" clip-rule="evenodd" d="M51.6753 127.925H54.3172V69.3798H51.6753V127.925Z" fill="#F1F3F6" stroke="#084888" stroke-width="1.12" stroke-linecap="round" stroke-linejoin="round"/>
  <path fill-rule="evenodd" clip-rule="evenodd" d="M85.16 127.925H87.8019V69.3798H85.16V127.925Z" fill="#F1F3F6" stroke="#084888" stroke-width="1.12" stroke-linecap="round" stroke-linejoin="round"/>
  <path d="M223.219 127.925H225.861V69.3798H223.219V127.925Z" fill="#F1F3F6"/>
  <path fill-rule="evenodd" clip-rule="evenodd" d="M223.219 127.925H225.861V69.3798H223.219V127.925Z" stroke="#084888" stroke-width="1.12" stroke-linecap="round" stroke-linejoin="round"/>
  <path fill-rule="evenodd" clip-rule="evenodd" d="M239.742 101.294L237.736 98.6524L241.904 96.2104L244.175 96.8794L246.644 95.6531V98.6524L250.993 101.294H239.742ZM244.175 96.8794L242.474 97.6737L244.175 96.8794ZM246.644 98.6524V99.6673V98.6524ZM246.644 96.8794L250.158 95.0825L252.814 98.0099L246.644 96.8794ZM251.788 96.8794L254.442 95.6531L256.655 98.6524L255.369 101.294L251.788 96.8794ZM255.64 97.2765L259.868 96.8794L261.707 101.294L255.64 97.2765Z" fill="#F1F3F6" stroke="#084888" stroke-width="1.12" stroke-linecap="round" stroke-linejoin="round"/>
  <path d="M236.45 103.099H263.866V101.294H236.45V103.099Z" fill="#084888"/>
  <path fill-rule="evenodd" clip-rule="evenodd" d="M236.45 103.099H263.866V101.294H236.45V103.099Z" stroke="#084888" stroke-width="1.12" stroke-linecap="round" stroke-linejoin="round"/>
  <path d="M191.396 13.1194C191.396 6.34408 196.888 0.851562 203.664 0.851562C210.439 0.851562 215.932 6.34408 215.932 13.1194C215.932 19.8947 210.439 25.3872 203.664 25.3872C196.888 25.3872 191.396 19.8947 191.396 13.1194Z" fill="#F1F3F6"/>
  <path fill-rule="evenodd" clip-rule="evenodd" d="M191.396 13.1194C191.396 6.34408 196.888 0.851562 203.664 0.851562C210.439 0.851562 215.932 6.34408 215.932 13.1194C215.932 19.8947 210.439 25.3872 203.664 25.3872C196.888 25.3872 191.396 19.8947 191.396 13.1194Z" stroke="#084888" stroke-width="1.12" stroke-linecap="round" stroke-linejoin="round"/>
  <path d="M193.662 13.1194C193.662 7.59558 198.14 3.11755 203.664 3.11755C209.187 3.11755 213.666 7.59558 213.666 13.1194C213.666 18.6433 209.187 23.1213 203.664 23.1213C198.14 23.1213 193.662 18.6433 193.662 13.1194Z" fill="#F1F3F6"/>
  <path fill-rule="evenodd" clip-rule="evenodd" d="M193.662 13.1194C193.662 7.59558 198.14 3.11755 203.664 3.11755C209.187 3.11755 213.666 7.59558 213.666 13.1194C213.666 18.6433 209.187 23.1213 203.664 23.1213C198.14 23.1213 193.662 18.6433 193.662 13.1194Z" stroke="#084888" stroke-width="1.12" stroke-linecap="round" stroke-linejoin="round"/>
  <path d="M203.664 13.1194V6.52722" stroke="#084888" stroke-width="1.12" stroke-linecap="round" stroke-linejoin="round"/>
  <path d="M203.664 13.1194L205.995 15.4502L203.664 13.1194Z" fill="#FFFFFE"/>
  <path d="M203.664 13.1194L205.995 15.4502" stroke="#084888" stroke-width="1.68" stroke-linecap="round" stroke-linejoin="round"/>
  <path d="M203.225 4.46729C203.225 4.23165 203.417 4.03882 203.653 4.03882C203.888 4.03882 204.081 4.23165 204.081 4.46729C204.081 4.70293 203.893 4.89577 203.653 4.89577C203.417 4.89577 203.225 4.70293 203.225 4.46729ZM206.801 5.51708C206.583 5.42706 206.48 5.17421 206.57 4.95578C206.66 4.73691 206.908 4.63454 207.127 4.72455C207.345 4.81413 207.453 5.06301 207.363 5.281C207.294 5.44824 207.131 5.54664 206.964 5.54664C206.908 5.54664 206.853 5.53826 206.801 5.51708ZM199.948 5.28982C199.858 5.07139 199.96 4.82296 200.183 4.72853C200.402 4.63851 200.65 4.74176 200.74 4.95975C200.83 5.17862 200.727 5.43103 200.508 5.52105C200.457 5.54267 200.402 5.55547 200.346 5.55547C200.178 5.55547 200.02 5.45707 199.948 5.28982ZM209.471 7.29452C209.303 7.12728 209.299 6.85766 209.471 6.69042C209.637 6.52362 209.907 6.51921 210.074 6.69042C210.242 6.85766 210.242 7.12728 210.074 7.29452C209.993 7.38057 209.881 7.41896 209.771 7.41896C209.663 7.41896 209.551 7.38057 209.471 7.29452ZM197.24 7.30732C197.073 7.14052 197.073 6.87046 197.24 6.70366C197.407 6.53245 197.677 6.53245 197.844 6.69925C198.011 6.86649 198.011 7.14052 197.844 7.30732C197.763 7.38896 197.652 7.43176 197.54 7.43176C197.433 7.43176 197.322 7.38896 197.24 7.30732ZM211.257 9.95937C211.167 9.74049 211.27 9.48809 211.488 9.39807C211.706 9.30805 211.955 9.41086 212.049 9.62929C212.139 9.84772 212.036 10.0962 211.818 10.1862C211.762 10.2122 211.706 10.2206 211.651 10.2206C211.484 10.2206 211.325 10.1222 211.257 9.95937ZM195.505 10.2034C195.282 10.1134 195.18 9.86493 195.269 9.6465C195.359 9.42807 195.612 9.32084 195.831 9.41528C196.049 9.5053 196.152 9.75373 196.062 9.97216C195.994 10.1394 195.835 10.2378 195.668 10.2378C195.612 10.2378 195.556 10.229 195.505 10.2034ZM211.886 13.1034C211.886 12.8634 212.079 12.675 212.315 12.675C212.55 12.6705 212.743 12.8634 212.743 13.099C212.743 13.3391 212.55 13.5275 212.315 13.5275C212.079 13.5319 211.886 13.3391 211.886 13.1034ZM194.584 13.1551C194.584 13.1506 194.584 13.1418 194.584 13.1378C194.584 13.129 194.584 13.1251 194.584 13.1206C194.584 12.881 194.772 12.6922 195.012 12.6922C195.248 12.6922 195.441 12.881 195.441 13.1206C195.441 13.1251 195.441 13.129 195.441 13.1378C195.441 13.1418 195.441 13.1467 195.441 13.1551C195.441 13.3907 195.248 13.5835 195.012 13.5835C194.777 13.5835 194.584 13.3951 194.584 13.1551ZM211.501 16.8088C211.282 16.7192 211.18 16.4664 211.27 16.2475C211.36 16.0295 211.608 15.9262 211.831 16.0167C212.049 16.1063 212.152 16.3552 212.062 16.5776C211.993 16.7404 211.835 16.8388 211.664 16.8388C211.612 16.8388 211.557 16.8304 211.501 16.8088ZM195.286 16.6292C195.192 16.4108 195.295 16.1579 195.514 16.0679C195.732 15.9735 195.984 16.0763 196.074 16.2947C196.165 16.5131 196.062 16.766 195.843 16.856C195.792 16.8776 195.736 16.8904 195.681 16.8904C195.514 16.8904 195.355 16.7916 195.286 16.6292ZM209.496 19.5248C209.329 19.358 209.325 19.088 209.492 18.9212C209.659 18.7495 209.929 18.7495 210.1 18.9167C210.267 19.0835 210.267 19.358 210.1 19.5248C210.014 19.6065 209.907 19.6488 209.796 19.6488C209.689 19.6488 209.577 19.6065 209.496 19.5248ZM197.266 19.5637C197.094 19.3964 197.094 19.1264 197.262 18.9551C197.428 18.7883 197.703 18.7883 197.87 18.9551C198.037 19.1224 198.037 19.392 197.87 19.5592C197.788 19.6448 197.677 19.6876 197.566 19.6876C197.458 19.6876 197.347 19.6448 197.266 19.5637ZM206.605 21.2683C206.51 21.0543 206.613 20.8014 206.831 20.7114C207.05 20.6174 207.303 20.7202 207.393 20.9387C207.482 21.1571 207.38 21.4099 207.161 21.5C207.11 21.5255 207.054 21.5339 206.998 21.5339C206.831 21.5339 206.669 21.4355 206.605 21.2683ZM200.213 21.5211C199.994 21.4311 199.891 21.1827 199.982 20.9642C200.072 20.7418 200.32 20.6386 200.538 20.7286C200.757 20.8186 200.865 21.0715 200.774 21.2899C200.706 21.4523 200.547 21.5556 200.376 21.5556C200.324 21.5556 200.268 21.5423 200.213 21.5211ZM203.263 21.774C203.259 21.5339 203.452 21.3455 203.687 21.3411C203.927 21.3411 204.115 21.5339 204.12 21.7696C204.12 22.0052 203.927 22.198 203.691 22.198C203.456 22.198 203.263 22.0096 203.263 21.774Z" fill="#084888"/>
  <g opacity="0.296875">
    <path opacity="0.296875" d="M126.283 26.1849L130.424 30.3258L126.283 26.1849Z" fill="#FFFFFE"/>
    <path opacity="0.296875" d="M126.283 26.1849L130.424 30.3258" stroke="white" stroke-width="1.12" stroke-linecap="round" stroke-linejoin="round"/>
    <path opacity="0.296875" d="M137.132 26.1849L141.274 30.3258L137.132 26.1849Z" fill="#FFFFFE"/>
    <path opacity="0.296875" d="M137.132 26.1849L141.274 30.3258" stroke="white" stroke-width="1.12" stroke-linecap="round" stroke-linejoin="round"/>
    <path opacity="0.296875" d="M140.564 24.1921L148.691 32.3186L140.564 24.1921Z" fill="#FFFFFE"/>
    <path opacity="0.296875" d="M140.564 24.1921L148.691 32.3186" stroke="white" stroke-width="1.12" stroke-linecap="round" stroke-linejoin="round"/>
    <path opacity="0.296875" d="M148.273 26.4767L151.831 30.0342L148.273 26.4767Z" fill="#FFFFFE"/>
    <path opacity="0.296875" d="M148.273 26.4767L151.831 30.0342" stroke="white" stroke-width="1.12" stroke-linecap="round" stroke-linejoin="round"/>
    <path opacity="0.296875" d="M128.363 22.8406L139.193 33.6703L128.363 22.8406Z" fill="#FFFFFE"/>
    <path opacity="0.296875" d="M128.363 22.8406L139.193 33.6703" stroke="white" stroke-width="1.12" stroke-linecap="round" stroke-linejoin="round"/>
  </g>
  <path d="M208.494 55.361L207.499 66.8054H199.829L198.749 55.361H208.494Z" fill="#F1F3F6"/>
  <path fill-rule="evenodd" clip-rule="evenodd" d="M208.494 55.361L207.499 66.8054H199.829L198.749 55.361H208.494ZM202.323 66.8054L201.997 55.361L202.323 66.8054ZM204.92 66.8054L205.246 55.361L204.92 66.8054ZM199.265 57.3868H208.063H199.265ZM199.265 59.7415H208.063H199.265ZM199.51 62.0961H207.818H199.51ZM199.732 64.4507H207.596H199.732Z" stroke="#084888" stroke-width="1.12" stroke-linecap="round" stroke-linejoin="round"/>
  <path d="M208.95 53.7799H198.293C197.857 53.7799 197.503 54.1334 197.503 54.5702C197.503 55.0066 197.857 55.361 198.293 55.361H208.95C209.387 55.361 209.74 55.0066 209.74 54.5702C209.74 54.1334 209.387 53.7799 208.95 53.7799Z" fill="#F1F3F6"/>
  <path fill-rule="evenodd" clip-rule="evenodd" d="M208.95 53.7799H198.293C197.857 53.7799 197.503 54.1334 197.503 54.5702C197.503 55.0066 197.857 55.361 198.293 55.361H208.95C209.387 55.361 209.74 55.0066 209.74 54.5702C209.74 54.1334 209.387 53.7799 208.95 53.7799Z" stroke="#084888" stroke-width="1.12" stroke-linecap="round" stroke-linejoin="round"/>
  <path d="M63.0341 66.8055H91.8783V50.7454H63.0341V66.8055Z" fill="#F1F3F6"/>
  <path fill-rule="evenodd" clip-rule="evenodd" d="M63.0341 66.8055H91.8783V50.7454H63.0341V66.8055Z" stroke="#084888" stroke-width="1.12" stroke-linecap="round" stroke-linejoin="round"/>
  <path d="M66.1399 53.1728C65.5089 53.1728 64.9979 52.6614 64.9979 52.0303V50.6743C64.9979 50.0429 65.5089 49.5319 66.1399 49.5319C66.771 49.5319 67.2824 50.0429 67.2824 50.6743V52.0303C67.2824 52.6614 66.771 53.1728 66.1399 53.1728Z" fill="#F1F3F6"/>
  <path fill-rule="evenodd" clip-rule="evenodd" d="M66.1399 53.1728C65.5089 53.1728 64.9979 52.6614 64.9979 52.0303V50.6743C64.9979 50.0429 65.5089 49.5319 66.1399 49.5319C66.771 49.5319 67.2824 50.0429 67.2824 50.6743V52.0303C67.2824 52.6614 66.771 53.1728 66.1399 53.1728Z" stroke="#084888" stroke-width="1.12" stroke-linecap="round" stroke-linejoin="round"/>
  <path d="M70.6659 53.1728C70.0349 53.1728 69.5234 52.6614 69.5234 52.0303V50.6743C69.5234 50.0429 70.0349 49.5319 70.6659 49.5319C71.2969 49.5319 71.8083 50.0429 71.8083 50.6743V52.0303C71.8083 52.6614 71.2969 53.1728 70.6659 53.1728Z" fill="#F1F3F6"/>
  <path fill-rule="evenodd" clip-rule="evenodd" d="M70.6659 53.1728C70.0349 53.1728 69.5234 52.6614 69.5234 52.0303V50.6743C69.5234 50.0429 70.0349 49.5319 70.6659 49.5319C71.2969 49.5319 71.8083 50.0429 71.8083 50.6743V52.0303C71.8083 52.6614 71.2969 53.1728 70.6659 53.1728Z" stroke="#084888" stroke-width="1.12" stroke-linecap="round" stroke-linejoin="round"/>
  <path d="M75.193 53.1728C74.5619 53.1728 74.0505 52.6614 74.0505 52.0303V50.6743C74.0505 50.0429 74.5619 49.5319 75.193 49.5319C75.824 49.5319 76.3354 50.0429 76.3354 50.6743V52.0303C76.3354 52.6614 75.824 53.1728 75.193 53.1728Z" fill="#F1F3F6"/>
  <path fill-rule="evenodd" clip-rule="evenodd" d="M75.193 53.1728C74.5619 53.1728 74.0505 52.6614 74.0505 52.0303V50.6743C74.0505 50.0429 74.5619 49.5319 75.193 49.5319C75.824 49.5319 76.3354 50.0429 76.3354 50.6743V52.0303C76.3354 52.6614 75.824 53.1728 75.193 53.1728Z" stroke="#084888" stroke-width="1.12" stroke-linecap="round" stroke-linejoin="round"/>
  <path d="M79.7193 53.1728C79.0883 53.1728 78.5768 52.6614 78.5768 52.0303V50.6743C78.5768 50.0429 79.0883 49.5319 79.7193 49.5319C80.3498 49.5319 80.8617 50.0429 80.8617 50.6743V52.0303C80.8617 52.6614 80.3498 53.1728 79.7193 53.1728Z" fill="#F1F3F6"/>
  <path fill-rule="evenodd" clip-rule="evenodd" d="M79.7193 53.1728C79.0883 53.1728 78.5768 52.6614 78.5768 52.0303V50.6743C78.5768 50.0429 79.0883 49.5319 79.7193 49.5319C80.3498 49.5319 80.8617 50.0429 80.8617 50.6743V52.0303C80.8617 52.6614 80.3498 53.1728 79.7193 53.1728Z" stroke="#084888" stroke-width="1.12" stroke-linecap="round" stroke-linejoin="round"/>
  <path d="M84.2456 53.1728C83.6146 53.1728 83.1031 52.6614 83.1031 52.0303V50.6743C83.1031 50.0429 83.6146 49.5319 84.2456 49.5319C84.8766 49.5319 85.3876 50.0429 85.3876 50.6743V52.0303C85.3876 52.6614 84.8766 53.1728 84.2456 53.1728Z" fill="#F1F3F6"/>
  <path fill-rule="evenodd" clip-rule="evenodd" d="M84.2456 53.1728C83.6146 53.1728 83.1031 52.6614 83.1031 52.0303V50.6743C83.1031 50.0429 83.6146 49.5319 84.2456 49.5319C84.8766 49.5319 85.3876 50.0429 85.3876 50.6743V52.0303C85.3876 52.6614 84.8766 53.1728 84.2456 53.1728Z" stroke="#084888" stroke-width="1.12" stroke-linecap="round" stroke-linejoin="round"/>
  <path d="M88.7726 53.1728C88.1416 53.1728 87.6302 52.6614 87.6302 52.0303V50.6743C87.6302 50.0429 88.1416 49.5319 88.7726 49.5319C89.4037 49.5319 89.9151 50.0429 89.9151 50.6743V52.0303C89.9151 52.6614 89.4037 53.1728 88.7726 53.1728Z" fill="#F1F3F6"/>
  <path fill-rule="evenodd" clip-rule="evenodd" d="M88.7726 53.1728C88.1416 53.1728 87.6302 52.6614 87.6302 52.0303V50.6743C87.6302 50.0429 88.1416 49.5319 88.7726 49.5319C89.4037 49.5319 89.9151 50.0429 89.9151 50.6743V52.0303C89.9151 52.6614 89.4037 53.1728 88.7726 53.1728Z" stroke="#084888" stroke-width="1.12" stroke-linecap="round" stroke-linejoin="round"/>
  <path d="M279.557 127.925H17" stroke="#084888" stroke-width="1.12" stroke-linecap="round" stroke-linejoin="round"/>
  <path d="M72.3859 56.6987H74.0553C74.4887 56.6987 74.8714 56.7865 75.2033 56.9623C75.5353 57.1341 75.793 57.3762 75.9765 57.6886C76.1601 57.9971 76.2518 58.3505 76.2518 58.7488C76.2518 59.1471 76.1601 59.5025 75.9765 59.8149C75.793 60.1234 75.5353 60.3655 75.2033 60.5412C74.8714 60.713 74.4887 60.799 74.0553 60.799H72.3859V56.6987ZM74.0318 60.4241C74.3911 60.4241 74.7055 60.3538 74.9749 60.2132C75.2444 60.0687 75.4533 59.8715 75.6017 59.6216C75.7501 59.3678 75.8242 59.0768 75.8242 58.7488C75.8242 58.4208 75.7501 58.1318 75.6017 57.8819C75.4533 57.6281 75.2444 57.4309 74.9749 57.2903C74.7055 57.1458 74.3911 57.0736 74.0318 57.0736H72.8193V60.4241H74.0318ZM79.8201 59.3873H77.2428C77.2662 59.7075 77.3892 59.9672 77.6118 60.1663C77.8344 60.3616 78.1156 60.4592 78.4553 60.4592C78.6466 60.4592 78.8224 60.426 78.9825 60.3596C79.1426 60.2893 79.2812 60.1878 79.3984 60.055L79.6327 60.3245C79.496 60.4885 79.3242 60.6135 79.1172 60.6994C78.9141 60.7853 78.6896 60.8282 78.4436 60.8282C78.1273 60.8282 77.8461 60.7619 77.6001 60.6291C77.358 60.4924 77.1686 60.305 77.0319 60.0668C76.8952 59.8286 76.8269 59.5591 76.8269 59.2584C76.8269 58.9577 76.8913 58.6883 77.0202 58.4501C77.153 58.2119 77.3326 58.0264 77.5591 57.8936C77.7895 57.7608 78.0472 57.6945 78.3323 57.6945C78.6173 57.6945 78.8731 57.7608 79.0996 57.8936C79.3261 58.0264 79.5038 58.2119 79.6327 58.4501C79.7615 58.6844 79.826 58.9538 79.826 59.2584L79.8201 59.3873ZM78.3323 58.0518C78.0355 58.0518 77.7856 58.1474 77.5825 58.3388C77.3834 58.5262 77.2701 58.7722 77.2428 59.0768H79.4276C79.4003 58.7722 79.2851 58.5262 79.082 58.3388C78.8829 58.1474 78.633 58.0518 78.3323 58.0518ZM73.575 67.8282C73.2704 67.8282 72.997 67.7619 72.7549 67.6291C72.5167 67.4963 72.3292 67.3108 72.1926 67.0726C72.0559 66.8305 71.9876 66.5591 71.9876 66.2584C71.9876 65.9577 72.0559 65.6883 72.1926 65.4501C72.3292 65.2119 72.5167 65.0264 72.7549 64.8936C72.997 64.7608 73.2704 64.6945 73.575 64.6945C73.8405 64.6945 74.0767 64.7472 74.2837 64.8526C74.4946 64.9541 74.6605 65.1045 74.7816 65.3036L74.4712 65.5145C74.3696 65.3622 74.2408 65.249 74.0846 65.1748C73.9284 65.0967 73.7585 65.0576 73.575 65.0576C73.3524 65.0576 73.1513 65.1084 72.9716 65.2099C72.7959 65.3075 72.6573 65.4481 72.5557 65.6317C72.4581 65.8152 72.4093 66.0241 72.4093 66.2584C72.4093 66.4966 72.4581 66.7075 72.5557 66.891C72.6573 67.0707 72.7959 67.2112 72.9716 67.3128C73.1513 67.4104 73.3524 67.4592 73.575 67.4592C73.7585 67.4592 73.9284 67.4221 74.0846 67.3479C74.2408 67.2737 74.3696 67.1605 74.4712 67.0082L74.7816 67.2191C74.6605 67.4182 74.4946 67.5705 74.2837 67.6759C74.0728 67.7775 73.8366 67.8282 73.575 67.8282Z" fill="#084888"/>
  <path d="M75.4215 65.6881C75.1051 65.6881 74.822 65.6041 74.5721 65.4362C74.3261 65.2683 74.1328 65.0281 73.9922 64.7157C73.8555 64.3994 73.7872 64.0285 73.7872 63.6028C73.7872 63.1772 73.8555 62.8081 73.9922 62.4957C74.1328 62.1794 74.3261 61.9373 74.5721 61.7694C74.822 61.6015 75.1051 61.5175 75.4215 61.5175C75.7378 61.5175 76.0189 61.6015 76.2649 61.7694C76.5149 61.9373 76.7101 62.1794 76.8507 62.4957C76.9913 62.8081 77.0616 63.1772 77.0616 63.6028C77.0616 64.0285 76.9913 64.3994 76.8507 64.7157C76.7101 65.0281 76.5149 65.2683 76.2649 65.4362C76.0189 65.6041 75.7378 65.6881 75.4215 65.6881ZM75.4215 65.3015C75.6597 65.3015 75.8686 65.2351 76.0482 65.1023C76.2317 64.9696 76.3743 64.7763 76.4758 64.5224C76.5773 64.2686 76.6281 63.9621 76.6281 63.6028C76.6281 63.2436 76.5773 62.937 76.4758 62.6832C76.3743 62.4294 76.2317 62.2361 76.0482 62.1033C75.8686 61.9705 75.6597 61.9041 75.4215 61.9041C75.1832 61.9041 74.9724 61.9705 74.7888 62.1033C74.6092 62.2361 74.4686 62.4294 74.3671 62.6832C74.2656 62.937 74.2148 63.2436 74.2148 63.6028C74.2148 63.9621 74.2656 64.2686 74.3671 64.5224C74.4686 64.7763 74.6092 64.9696 74.7888 65.1023C74.9724 65.2351 75.1832 65.3015 75.4215 65.3015ZM74.865 70.2338C75.4585 70.2338 75.8901 70.3412 76.1595 70.556C76.4329 70.7668 76.5695 71.0636 76.5695 71.4463C76.5695 71.6845 76.5129 71.8973 76.3997 72.0848C76.2903 72.2722 76.1244 72.4206 75.9018 72.5299C75.6792 72.6354 75.4058 72.6881 75.0817 72.6881C74.7888 72.6881 74.5096 72.6412 74.2441 72.5475C73.9824 72.4499 73.7716 72.321 73.6115 72.1609L73.8165 71.827C73.9532 71.9676 74.1328 72.0828 74.3554 72.1726C74.578 72.2585 74.8181 72.3015 75.0759 72.3015C75.4156 72.3015 75.6772 72.2254 75.8608 72.0731C76.0482 71.9208 76.1419 71.7177 76.1419 71.4639C76.1419 71.1827 76.0365 70.9699 75.8256 70.8254C75.6187 70.6809 75.2672 70.6087 74.7713 70.6087H73.8985L74.1094 68.5527H76.3528V68.9276H74.4784L74.3378 70.2338H74.865Z" fill="#084888"/>
  <rect y="103" width="297" height="89" fill="url(#paint1_linear)"/>
  <defs>
    <linearGradient id="paint0_linear" x1="159.045" y1="98.5352" x2="159.045" y2="69.3798" gradientUnits="userSpaceOnUse">
      <stop stop-color="#0187E0"/>
      <stop offset="1" stop-color="#026FB8"/>
    </linearGradient>
    <linearGradient id="paint1_linear" x1="145.5" y1="69.1269" x2="144.916" y2="126.796" gradientUnits="userSpaceOnUse">
      <stop stop-color="#0187E0" stop-opacity="0"/>
      <stop offset="1" stop-color="#0187E0"/>
    </linearGradient>
  </defs>
</svg>
